<svg xmlns="http://www.w3.org/2000/svg" viewBox="0 0 900 1200" class="svg-van">
	<defs>
		<clipPath clipPathUnits="userSpaceOnUse" id="cp1">
			<path d="M-171 -84L1053 -84L1053 1500L-171 1500L-171 -84Z" />
		</clipPath>
	</defs>
	<style>
		tspan { white-space:pre }
		.shp0 { fill: #c0c0c0;stroke: #6d6d6d;stroke-width: 2 } 
		.shp1 { fill: #7d7d7d } 
		.shp2 { fill: #ebebeb } 
		.shp3 { fill: #484848 } 
		.shp4 { fill: #656565 } 
		.shp5 { fill: #d2d2d2 } 
		.shp6 { fill: #c0c0c0 } 
		.shp7 { fill: #949494 } 
		.shp8 { fill: #00873a } 
		.shp9 { fill: #1f1f1f } 
		.shp10 { fill: #ff4439 } 
		.shp11 { fill: #9e9e9e } 
		.shp12 { fill: #fbbd1b } 
		.shp13 { fill: #c1c1c1 } 
		.shp14 { fill: #ffffff } 
		.shp15 { fill: #4e4e4e } 
	</style>
	<g id="Clip-Path: Page 1" clip-path="url(#cp1)">
		<g id="Page 1">
			<path id="Path 1" class="shp0" d="M804.93 215C779.27 30 644.6 19 644.6 19L238.6 19C82.6 64 83.6 220.67 83.6 220.67L83.6 1163.33C83.6 1176.53 94.4 1187.33 107.6 1187.33L780.93 1187.33C794.13 1187.33 804.93 1176.53 804.93 1163.33L804.93 220.67C804.93 218.71 804.67 216.83 804.23 215.01L804.93 215Z" />
			<path id="Path 2" fill-rule="evenodd" class="shp1" d="M155.52 63.13C155.52 63.13 64.6 85.5 83.6 215.5C83.6 215.5 84.44 124.75 155.52 63.13ZM804.99 215.5C823.99 85.5 735.07 63.13 735.07 63.13C796.23 120.3 804.99 215.5 804.99 215.5Z" />
			<path id="Path 3" class="shp2" d="M768.32 1160.67L120.32 1160.67C107.12 1160.67 96.32 1149.87 96.32 1136.67L96.32 268.67C96.32 255.47 107.12 244.67 120.32 244.67L768.32 244.67C781.52 244.67 792.32 255.47 792.32 268.67L792.32 1136.67C792.32 1149.87 781.52 1160.67 768.32 1160.67Z" />
			<path id="Path 4" class="shp3" d="M118.23 1178L770.23 1178C770.23 1178 774.73 1183 739.23 1186L147.23 1186C147.23 1186 126.23 1186.5 118.23 1178Z" />
			<path id="Path 5" class="shp4" d="M609.05 37L280.05 37C280.05 37 268.12 40.29 259.32 48L628.47 48C624.02 44.25 617.79 40.5 609.05 37ZM252.55 77L635.55 77C635.55 77 638.04 73.4 638.43 68L250.21 68C250.43 70.79 251.16 73.78 252.55 77ZM633.78 53.5L254.3 53.5C252.44 56.14 251.06 59.13 250.46 62.5L638.05 62.5C637.45 59.69 636.16 56.64 633.78 53.5Z" />
			<path id="Path 6" fill-rule="evenodd" class="shp5" d="M250.21 31.33C168.88 45.33 141.55 97.33 141.55 97.33C236.21 99.33 250.21 31.33 250.21 31.33ZM170.88 215.5C171.54 161.67 236.88 74.67 236.88 74.67C142.88 130 132.88 219.33 132.88 219.33L170.88 215.5ZM745.13 97.33C745.13 97.33 717.8 45.33 636.47 31.33C636.47 31.33 650.47 99.33 745.13 97.33ZM753.8 219.33C753.8 219.33 743.8 130 649.8 74.67C649.8 74.67 715.13 161.67 715.8 215.5L753.8 219.33Z" />
			<path id="Path 7" class="shp4" d="M745.92 214L139.59 214L139.59 214.22C123.46 216.04 110.92 229.72 110.92 246.33C110.92 262.95 123.46 276.62 139.59 278.44L139.59 278.67L745.92 278.67C763.78 278.67 778.26 264.19 778.26 246.33C778.26 228.48 763.78 214 745.92 214ZM291.92 276.15L155.42 276.15L155.42 276.22C149.89 276.85 145.59 281.54 145.59 287.24C145.59 292.94 149.89 297.63 155.42 298.26L155.42 298.33L291.92 298.33C298.05 298.33 303.02 293.37 303.02 287.24C303.02 281.11 298.05 276.15 291.92 276.15Z" />
			<path id="Path 8" class="shp6" d="M328.55 280.42C328.55 288.19 322.24 294.5 314.46 294.5C306.69 294.5 300.38 288.19 300.38 280.42C300.38 272.64 306.69 266.33 314.46 266.33C322.24 266.33 328.55 272.64 328.55 280.42Z" />
			<path id="Path 9" class="shp4" d="M321.92 287.04C321.92 291.16 318.59 294.5 314.47 294.5C310.35 294.5 307.01 291.16 307.01 287.04C307.01 282.92 310.35 279.58 314.47 279.58C318.59 279.58 321.92 282.92 321.92 287.04Z" />
			<path id="Path 10" class="shp5" d="M162.17 244L138.67 244C134.14 244 130.42 240.29 130.42 235.75C130.42 231.21 134.14 227.5 138.67 227.5L162.17 227.5C166.71 227.5 170.42 231.21 170.42 235.75C170.42 240.29 166.71 244 162.17 244ZM750.67 244L727.17 244C722.64 244 718.92 240.29 718.92 235.75C718.92 231.21 722.64 227.5 727.17 227.5L750.67 227.5C755.21 227.5 758.92 231.21 758.92 235.75C758.92 240.29 755.21 244 750.67 244Z" />
			<path id="Path 11" class="shp7" d="M542.42 277L726.92 277C726.92 277 731.92 254 714.92 244L555.42 244C555.42 244 537.42 250.5 542.42 277Z" />
			<path id="Path 12" class="shp8" d="M265.83 452.5L148.51 452.5C142.27 452.5 137.17 447.4 137.17 441.16L137.17 321.34C137.17 315.1 142.27 310 148.51 310L265.83 310C272.07 310 277.17 315.1 277.17 321.34L277.17 441.16C277.17 447.4 272.07 452.5 265.83 452.5Z" />
			<path id="Path 13" class="shp9" d="M281.71 354.34L281.71 445.24C281.71 451.48 276.61 456.58 270.37 456.58L143.01 456.58C136.78 456.58 131.67 451.48 131.67 445.24L131.67 354.34L142.67 354.34L142.67 443C142.67 443 141.17 449.5 159.17 448C159.17 448 157.67 437 166.67 437.5C175.67 438 247.67 437.5 247.67 437.5C247.67 437.5 256.17 440.42 255.67 448.5L269.67 448.5L270.67 354.34L281.71 354.34Z" />
			<path id="asiento-1" class="asientos" data-asiento="1" d="M574.33 452.5L457.01 452.5C450.78 452.5 445.67 447.4 445.67 441.16L445.67 321.34C445.67 315.1 450.78 310 457.01 310L574.33 310C580.57 310 585.67 315.1 585.67 321.34L585.67 441.16C585.67 447.4 580.57 452.5 574.33 452.5Z" />
			<path id="Path 15" class="shp9" d="M590.21 354.34L590.21 445.24C590.21 451.48 585.11 456.58 578.87 456.58L451.51 456.58C445.27 456.58 440.17 451.48 440.17 445.24L440.17 354.34L451.17 354.34L451.17 443C451.17 443 449.67 449.5 467.67 448C467.67 448 466.17 437 475.17 437.5C484.17 438 556.17 437.5 556.17 437.5C556.17 437.5 564.67 440.42 564.17 448.5L578.17 448.5L579.17 354.34L590.21 354.34Z" />
			<path id="asiento-2" class="asientos" data-asiento="2" d="M253.67 625.17L136.35 625.17C130.11 625.17 125.01 620.06 125.01 613.83L125.01 494C125.01 487.77 130.11 482.67 136.35 482.67L253.67 482.67C259.9 482.67 265.01 487.77 265.01 494L265.01 613.83C265.01 620.06 259.9 625.17 253.67 625.17Z" />
			<path id="Path 17" class="shp9" d="M269.55 527L269.55 617.91C269.55 624.14 264.44 629.24 258.21 629.24L130.85 629.24C124.61 629.24 119.51 624.14 119.51 617.91L119.51 527L130.51 527L130.51 615.67C130.51 615.67 129.01 622.17 147.01 620.67C147.01 620.67 145.51 609.67 154.51 610.17C163.51 610.67 235.51 610.17 235.51 610.17C235.51 610.17 244.01 613.09 243.51 621.17L257.51 621.17L258.51 527L269.55 527Z" />
			<path id="asiento-3" class="asientos" data-asiento="3" d="M416.41 625.17L299.08 625.17C292.85 625.17 287.74 620.06 287.74 613.83L287.74 494C287.74 487.77 292.85 482.67 299.08 482.67L416.41 482.67C422.64 482.67 427.74 487.77 427.74 494L427.74 613.83C427.74 620.06 422.64 625.17 416.41 625.17Z" />
			<path id="Path 19" class="shp9" d="M432.28 527L432.28 617.91C432.28 624.14 427.18 629.24 420.95 629.24L293.58 629.24C287.35 629.24 282.25 624.14 282.25 617.91L282.25 527L293.25 527L293.25 615.67C293.25 615.67 291.75 622.17 309.75 620.67C309.75 620.67 308.25 609.67 317.25 610.17C326.25 610.67 398.25 610.17 398.25 610.17C398.25 610.17 406.75 613.09 406.25 621.17L420.25 621.17L421.25 527L432.28 527Z" />
			<path id="asiento-4" class="asientos" data-asiento="4" d="M253.67 803.17L136.35 803.17C130.11 803.17 125.01 798.06 125.01 791.83L125.01 672C125.01 665.77 130.11 660.67 136.35 660.67L253.67 660.67C259.9 660.67 265.01 665.77 265.01 672L265.01 791.83C265.01 798.06 259.9 803.17 253.67 803.17Z" />
			<path id="Path 21" class="shp9" d="M269.55 705L269.55 795.91C269.55 802.14 264.44 807.25 258.21 807.25L130.85 807.25C124.61 807.25 119.51 802.14 119.51 795.91L119.51 705L130.51 705L130.51 793.67C130.51 793.67 129.01 800.17 147.01 798.67C147.01 798.67 145.51 787.67 154.51 788.17C163.51 788.67 235.51 788.17 235.51 788.17C235.51 788.17 244.01 791.09 243.51 799.17L257.51 799.17L258.51 705L269.55 705Z" />
			<path id="asiento-5" class="asientos" data-asiento="5" d="M416.41 803.17L299.08 803.17C292.85 803.17 287.74 798.06 287.74 791.83L287.74 672C287.74 665.77 292.85 660.67 299.08 660.67L416.41 660.67C422.64 660.67 427.74 665.77 427.74 672L427.74 791.83C427.74 798.06 422.64 803.17 416.41 803.17Z" />
			<path id="Path 23" class="shp9" d="M432.28 705L432.28 795.91C432.28 802.14 427.18 807.25 420.95 807.25L293.58 807.25C287.35 807.25 282.25 802.14 282.25 795.91L282.25 705L293.25 705L293.25 793.67C293.25 793.67 291.75 800.17 309.75 798.67C309.75 798.67 308.25 787.67 317.25 788.17C326.25 788.67 398.25 788.17 398.25 788.17C398.25 788.17 406.75 791.09 406.25 799.17L420.25 799.17L421.25 705L432.28 705Z" />
			<path id="asiento-7" class="asientos" data-asiento="7" d="M253.67 981.17L136.35 981.17C130.11 981.17 125.01 976.06 125.01 969.83L125.01 850.01C125.01 843.77 130.11 838.67 136.35 838.67L253.67 838.67C259.9 838.67 265.01 843.77 265.01 850.01L265.01 969.83C265.01 976.06 259.9 981.17 253.67 981.17Z" />
			<path id="Path 25" class="shp9" d="M269.55 883.01L269.55 973.91C269.55 980.14 264.44 985.25 258.21 985.25L130.85 985.25C124.61 985.25 119.51 980.14 119.51 973.91L119.51 883.01L130.51 883.01L130.51 971.67C130.51 971.67 129.01 978.17 147.01 976.67C147.01 976.67 145.51 965.67 154.51 966.17C163.51 966.67 235.51 966.17 235.51 966.17C235.51 966.17 244.01 969.09 243.51 977.17L257.51 977.17L258.51 883.01L269.55 883.01Z" />
			<path id="asiento-8" class="asientos" data-asiento="8" d="M416.41 981.17L299.08 981.17C292.85 981.17 287.74 976.06 287.74 969.83L287.74 850.01C287.74 843.77 292.85 838.67 299.08 838.67L416.41 838.67C422.64 838.67 427.74 843.77 427.74 850.01L427.74 969.83C427.74 976.06 422.64 981.17 416.41 981.17Z" />
			<path id="Path 27" class="shp9" d="M432.28 883.01L432.28 973.91C432.28 980.14 427.18 985.25 420.95 985.25L293.58 985.25C287.35 985.25 282.25 980.14 282.25 973.91L282.25 883.01L293.25 883.01L293.25 971.67C293.25 971.67 291.75 978.17 309.75 976.67C309.75 976.67 308.25 965.67 317.25 966.17C326.25 966.67 398.25 966.17 398.25 966.17C398.25 966.17 406.75 969.09 406.25 977.17L420.25 977.17L421.25 883.01L432.28 883.01Z" />
			<path id="asiento-10" class="asientos" data-asiento="10" d="M253.67 1151.83L136.35 1151.83C130.11 1151.83 125.01 1146.73 125.01 1140.49L125.01 1020.67C125.01 1014.44 130.11 1009.33 136.35 1009.33L253.67 1009.33C259.9 1009.33 265.01 1014.44 265.01 1020.67L265.01 1140.49C265.01 1146.73 259.9 1151.83 253.67 1151.83Z" />
			<path id="Path 29" class="shp9" d="M269.55 1053.67L269.55 1144.57C269.55 1150.81 264.44 1155.91 258.21 1155.91L130.85 1155.91C124.61 1155.91 119.51 1150.81 119.51 1144.57L119.51 1053.67L130.51 1053.67L130.51 1142.33C130.51 1142.33 129.01 1148.83 147.01 1147.33C147.01 1147.33 145.51 1136.33 154.51 1136.83C163.51 1137.33 235.51 1136.83 235.51 1136.83C235.51 1136.83 244.01 1139.75 243.51 1147.83L257.51 1147.83L258.51 1053.67L269.55 1053.67Z" />
			<path id="asiento-11" class="asientos" data-asiento="11" d="M416.41 1151.83L299.08 1151.83C292.85 1151.83 287.74 1146.73 287.74 1140.49L287.74 1020.67C287.74 1014.44 292.85 1009.33 299.08 1009.33L416.41 1009.33C422.64 1009.33 427.74 1014.44 427.74 1020.67L427.74 1140.49C427.74 1146.73 422.64 1151.83 416.41 1151.83Z" />
			<path id="Path 31" class="shp9" d="M432.28 1053.67L432.28 1144.57C432.28 1150.81 427.18 1155.91 420.95 1155.91L293.58 1155.91C287.35 1155.91 282.25 1150.81 282.25 1144.57L282.25 1053.67L293.25 1053.67L293.25 1142.33C293.25 1142.33 291.75 1148.83 309.75 1147.33C309.75 1147.33 308.25 1136.33 317.25 1136.83C326.25 1137.33 398.25 1136.83 398.25 1136.83C398.25 1136.83 406.75 1139.75 406.25 1147.83L420.25 1147.83L421.25 1053.67L432.28 1053.67Z" />
			<path id="asiento-12" class="asientos" data-asiento="12" d="M585.67 1151.83L468.35 1151.83C462.11 1151.83 457.01 1146.73 457.01 1140.49L457.01 1020.67C457.01 1014.44 462.11 1009.33 468.35 1009.33L585.67 1009.33C591.9 1009.33 597.01 1014.44 597.01 1020.67L597.01 1140.49C597.01 1146.73 591.9 1151.83 585.67 1151.83Z" />
			<path id="Path 33" class="shp9" d="M601.54 1053.67L601.54 1144.57C601.54 1150.81 596.44 1155.91 590.21 1155.91L462.84 1155.91C456.61 1155.91 451.51 1150.81 451.51 1144.57L451.51 1053.67L462.51 1053.67L462.51 1142.33C462.51 1142.33 461.01 1148.83 479.01 1147.33C479.01 1147.33 477.51 1136.33 486.51 1136.83C495.51 1137.33 567.51 1136.83 567.51 1136.83C567.51 1136.83 576.01 1139.75 575.51 1147.83L589.51 1147.83L590.51 1053.67L601.54 1053.67Z" />
			<path id="asiento-13" class="asientos" data-asiento="13" d="M752.41 1151.83L635.08 1151.83C628.85 1151.83 623.74 1146.73 623.74 1140.49L623.74 1020.67C623.74 1014.44 628.85 1009.33 635.08 1009.33L752.41 1009.33C758.64 1009.33 763.74 1014.44 763.74 1020.67L763.74 1140.49C763.74 1146.73 758.64 1151.83 752.41 1151.83Z" />
			<path id="Path 35" class="shp9" d="M768.28 1053.67L768.28 1144.57C768.28 1150.81 763.18 1155.91 756.95 1155.91L629.58 1155.91C623.35 1155.91 618.24 1150.81 618.24 1144.57L618.24 1053.67L629.24 1053.67L629.24 1142.33C629.24 1142.33 627.74 1148.83 645.74 1147.33C645.74 1147.33 644.24 1136.33 653.24 1136.83C662.24 1137.33 734.24 1136.83 734.24 1136.83C734.24 1136.83 742.74 1139.75 742.24 1147.83L756.24 1147.83L757.24 1053.67L768.28 1053.67Z" />
			<path id="asiento-9" class="asientos" data-asiento="9" d="M752.41 981.17L635.08 981.17C628.85 981.17 623.74 976.06 623.74 969.83L623.74 850.01C623.74 843.77 628.85 838.67 635.08 838.67L752.41 838.67C758.64 838.67 763.74 843.77 763.74 850.01L763.74 969.83C763.74 976.06 758.64 981.17 752.41 981.17Z" />
			<path id="Path 37" class="shp9" d="M768.28 883.01L768.28 973.91C768.28 980.14 763.18 985.25 756.95 985.25L629.58 985.25C623.35 985.25 618.24 980.14 618.24 973.91L618.24 883.01L629.24 883.01L629.24 971.67C629.24 971.67 627.74 978.17 645.74 976.67C645.74 976.67 644.24 965.67 653.24 966.17C662.24 966.67 734.24 966.17 734.24 966.17C734.24 966.17 742.74 969.09 742.24 977.17L756.24 977.17L757.24 883.01L768.28 883.01Z" />
			<path id="asiento-6" class="asientos" data-asiento="6" d="M752.41 801.13L635.08 801.13C628.85 801.13 623.74 796.03 623.74 789.79L623.74 669.97C623.74 663.73 628.85 658.63 635.08 658.63L752.41 658.63C758.64 658.63 763.74 663.73 763.74 669.97L763.74 789.79C763.74 796.03 758.64 801.13 752.41 801.13Z" />
			<path id="Path 39" class="shp9" d="M768.28 702.97L768.28 793.87C768.28 800.1 763.18 805.21 756.95 805.21L629.58 805.21C623.35 805.21 618.24 800.1 618.24 793.87L618.24 702.97L629.24 702.97L629.24 791.63C629.24 791.63 627.74 798.13 645.74 796.63C645.74 796.63 644.24 785.63 653.24 786.13C662.24 786.63 734.24 786.13 734.24 786.13C734.24 786.13 742.74 789.05 742.24 797.13L756.24 797.13L757.24 702.97L768.28 702.97Z" />
			<path id="Path 40" class="shp8" d="M407.66 452.98L306.86 452.98C300.63 452.98 295.52 447.88 295.52 441.64L295.52 338.64C295.52 332.4 300.63 327.3 306.86 327.3L407.66 327.3C413.9 327.3 419 332.4 419 338.64L419 441.64C419 447.88 413.9 452.98 407.66 452.98Z" />
			<path id="Path 41" class="shp9" d="M423.01 366.4L423.01 446.58C423.01 452.08 418.51 456.58 413.01 456.58L300.67 456.58C295.17 456.58 290.67 452.08 290.67 446.58L290.67 366.4L300.37 366.4L300.37 444.6C300.37 444.6 299.05 450.34 314.93 449.01C314.93 449.01 313.6 439.31 321.54 439.75C329.48 440.19 392.98 439.75 392.98 439.75C392.98 439.75 400.48 442.33 400.04 449.45L412.39 449.45L413.27 366.4L423.01 366.4Z" />
			<path id="Path 42" class="shp13" d="M246.92 293C246.92 303.77 238.19 312.5 227.42 312.5C216.65 312.5 207.92 303.77 207.92 293C207.92 282.23 216.65 273.5 227.42 273.5C238.19 273.5 246.92 282.23 246.92 293Z" />
			<path id="Path 43" class="shp4" d="M237.6 293C237.6 298.62 233.04 303.18 227.42 303.18C221.81 303.18 217.25 298.62 217.25 293C217.25 287.38 221.81 282.82 227.42 282.82C233.04 282.82 237.6 287.38 237.6 293Z" />
			<path id="Path 44" class="shp6" d="M232.92 277L221.27 277L221.27 247.8L232.92 247.8L232.92 277ZM199.06 329.72L190.12 322.24L208.86 299.85L217.79 307.33L199.06 329.72ZM265.39 319.69L257.91 328.62L235.52 309.89L243 300.95L265.39 319.69Z" />
			<path id="Path 45" fill-rule="evenodd" class="shp6" d="M226.67 351C196.48 351 171.92 326.44 171.92 296.25C171.92 266.06 196.48 241.5 226.67 241.5C256.86 241.5 281.42 266.06 281.42 296.25C281.42 326.44 256.86 351 226.67 351ZM226.67 253.5C203.1 253.5 183.92 272.68 183.92 296.25C183.92 319.82 203.1 339 226.67 339C250.25 339 269.42 319.82 269.42 296.25C269.42 272.68 250.25 253.5 226.67 253.5Z" />
			<path id="Path 46" fill-rule="evenodd" class="shp14" d="M513.95 397.61C513.53 397.25 513.32 396.73 513.32 396.07L513.3 374.7L509.22 377.32C508.97 377.49 508.7 377.57 508.4 377.57C507.97 377.57 507.59 377.41 507.28 377.08C506.97 376.76 506.81 376.39 506.81 375.97C506.81 375.45 507.07 375.03 507.58 374.7L514.39 370.5C514.69 370.32 515.09 370.22 515.58 370.19C516.16 370.19 516.65 370.38 517.06 370.76C517.47 371.13 517.67 371.66 517.67 372.34L517.67 396.07C517.67 396.73 517.46 397.25 517.02 397.61C516.58 397.98 516.07 398.16 515.49 398.16C514.89 398.16 514.38 397.98 513.95 397.61ZM201.32 554.9C200.59 556.27 199.41 557.7 197.79 559.18L189.06 567.52L200.52 567.52C201.02 567.52 201.41 567.68 201.69 568C201.98 568.32 202.12 568.71 202.12 569.16C202.12 569.61 201.98 569.99 201.7 570.33C201.42 570.66 201.03 570.82 200.52 570.82L186.95 570.82C186.15 570.82 185.51 570.61 185.03 570.19C184.55 569.77 184.31 569.24 184.31 568.62C184.31 568.45 184.33 568.27 184.37 568.1C184.41 567.92 184.47 567.75 184.54 567.57C184.62 567.4 184.72 567.22 184.85 567.04C184.97 566.87 185.12 566.7 185.29 566.53L195.42 556.31C197.35 554.37 198.31 552.57 198.31 550.9C198.31 549.47 197.84 548.3 196.88 547.41C195.92 546.51 194.75 546.06 193.37 546.06C192.71 546.06 192.1 546.1 191.56 546.18C191.01 546.25 190.51 546.38 190.06 546.55C189.61 546.72 189.25 546.87 188.99 547C188.72 547.13 188.38 547.32 187.97 547.57C187.56 547.83 187.27 548 187.08 548.09C186.9 548.18 186.71 548.23 186.5 548.23C186.06 548.23 185.66 548.04 185.3 547.66C184.94 547.28 184.76 546.86 184.76 546.39C184.76 545.83 185.04 545.39 185.6 545.06C186.89 544.28 188.15 543.69 189.38 543.27C190.61 542.86 192.07 542.66 193.76 542.66C195 542.66 196.16 542.87 197.24 543.29C198.32 543.72 199.24 544.29 199.99 545C200.75 545.72 201.34 546.56 201.77 547.53C202.2 548.5 202.42 549.52 202.42 550.59C202.42 552.09 202.05 553.52 201.32 554.9ZM348.77 569.71C348.1 569.37 347.76 568.87 347.76 568.21C347.76 567.89 347.84 567.59 347.99 567.3C348.15 567 348.36 566.77 348.63 566.59C348.89 566.4 349.17 566.31 349.46 566.31C349.63 566.31 349.79 566.34 349.95 566.41C351.81 567.28 353.58 567.72 355.26 567.72C356.94 567.72 358.29 567.34 359.3 566.59C360.32 565.83 360.82 564.73 360.82 563.28C360.82 561.66 360.22 560.35 359.01 559.36C357.8 558.37 356.28 557.87 354.46 557.87L352.91 557.87C352.45 557.87 352.09 557.72 351.84 557.41C351.59 557.09 351.47 556.72 351.47 556.29C351.47 555.86 351.59 555.49 351.84 555.17C352.09 554.85 352.45 554.69 352.91 554.69L354.3 554.69C356.06 554.69 357.48 554.3 358.56 553.51C359.64 552.72 360.18 551.58 360.18 550.08C360.18 548.69 359.69 547.63 358.72 546.9C357.74 546.17 356.56 545.8 355.18 545.8C354.16 545.8 353.16 545.92 352.16 546.17C351.17 546.41 350.32 546.71 349.61 547.07C349.44 547.15 349.27 547.19 349.11 547.19C348.68 547.19 348.3 546.98 347.96 546.57C347.63 546.15 347.47 545.69 347.47 545.2C347.47 544.68 347.68 544.28 348.11 544.01C348.8 543.58 349.84 543.18 351.22 542.82C352.6 542.45 353.98 542.27 355.36 542.27C357.07 542.27 358.62 542.54 359.99 543.1C361.37 543.65 362.48 544.51 363.32 545.68C364.17 546.84 364.59 548.24 364.59 549.87C364.59 552.85 363.07 554.93 360.02 556.12C361.69 556.56 362.97 557.41 363.87 558.67C364.77 559.94 365.22 561.49 365.22 563.34C365.22 564.67 364.96 565.85 364.44 566.89C363.92 567.92 363.2 568.75 362.3 569.38C361.39 570 360.37 570.47 359.23 570.78C358.09 571.1 356.87 571.25 355.55 571.25C352.95 571.25 350.69 570.74 348.77 569.71ZM196.87 745.09C196.44 744.73 196.22 744.26 196.22 743.66L196.22 739.66L185.23 739.66C184.6 739.66 184.1 739.43 183.7 738.97C183.31 738.52 183.12 737.99 183.12 737.39C183.12 737.29 183.13 737.19 183.14 737.09C183.15 736.99 183.17 736.89 183.2 736.79C183.22 736.7 183.26 736.6 183.29 736.51C183.33 736.42 183.38 736.34 183.43 736.26L193.82 719.73C194.71 718.32 195.9 717.61 197.42 717.61C198.29 717.61 199.01 717.86 199.59 718.36C200.17 718.86 200.46 719.61 200.46 720.61L200.46 736.49L203.12 736.49C203.61 736.49 204 736.65 204.27 736.96C204.54 737.27 204.68 737.64 204.68 738.07C204.68 738.5 204.54 738.87 204.27 739.19C204 739.5 203.61 739.66 203.12 739.66L200.44 739.66L200.44 743.66C200.44 744.27 200.23 744.75 199.81 745.1C199.39 745.44 198.9 745.61 198.35 745.61C197.79 745.61 197.3 745.44 196.87 745.09ZM196.22 736.49L196.22 722.06L187.38 736.49L196.22 736.49ZM351.73 745.22C350.4 744.7 349.15 743.95 347.99 742.96C347.72 742.72 347.58 742.41 347.58 742.02C347.58 741.54 347.77 741.08 348.14 740.64C348.51 740.21 348.92 739.99 349.36 739.99C349.63 739.99 349.88 740.08 350.1 740.26C351.95 741.73 354 742.47 356.24 742.47C358.07 742.47 359.46 741.96 360.41 740.95C361.35 739.95 361.82 738.54 361.82 736.73C361.82 735.09 361.36 733.77 360.43 732.79C359.49 731.81 358.27 731.32 356.74 731.32C355.74 731.32 354.76 731.54 353.81 731.99C352.86 732.44 352.07 732.99 351.43 733.64C351.37 733.71 351.28 733.75 351.16 733.78C351.04 733.8 350.9 733.82 350.75 733.82C350.15 733.82 349.53 733.66 348.9 733.35C348.27 733.03 347.95 732.65 347.95 732.19L347.95 719.69C347.95 718.38 348.67 717.72 350.1 717.72L362.88 717.72C363.37 717.72 363.76 717.89 364.03 718.22C364.3 718.55 364.44 718.94 364.44 719.38C364.44 719.83 364.3 720.21 364.03 720.53C363.76 720.86 363.37 721.02 362.88 721.02L351.45 721.02L351.43 729.91L351.65 729.71C351.79 729.57 352.02 729.4 352.35 729.2C352.67 729 353.06 728.8 353.49 728.6C353.93 728.41 354.49 728.24 355.18 728.1C355.87 727.97 356.6 727.9 357.37 727.9C359.96 727.9 362.05 728.73 363.65 730.4C365.24 732.07 366.04 734.22 366.04 736.86C366.04 739.61 365.13 741.82 363.32 743.49C361.5 745.17 359.19 746 356.39 746C354.62 746 353.07 745.74 351.73 745.22ZM189.08 925C188.62 924.62 188.39 924.13 188.39 923.54C188.38 923.3 188.46 922.98 188.63 922.59L197.96 901.2L185.4 901.2C184.86 901.2 184.43 901.03 184.13 900.68C183.83 900.34 183.69 899.93 183.69 899.46C183.69 898.99 183.83 898.58 184.13 898.23C184.43 897.88 184.86 897.7 185.4 897.7L200.38 897.7C201.17 897.7 201.76 897.89 202.18 898.26C202.6 898.63 202.81 899.12 202.81 899.73C202.81 900.37 202.67 901 202.4 901.63L192.55 924.34C192.19 925.16 191.55 925.57 190.64 925.57C190.05 925.57 189.53 925.38 189.08 925Z" />
			<path id="Path 47" fill-rule="evenodd" class="shp14" d="M348.92 923.87C347.08 922.44 346.16 920.49 346.16 918C346.16 916.24 346.63 914.73 347.58 913.47C348.53 912.2 349.89 911.38 351.65 911C350.03 910.6 348.8 909.85 347.94 908.74C347.09 907.63 346.67 906.27 346.67 904.64C346.67 902.24 347.55 900.37 349.31 899.03C351.08 897.69 353.34 897.02 356.1 897.02C357.9 897.02 359.5 897.3 360.91 897.87C362.33 898.44 363.45 899.31 364.29 900.48C365.13 901.65 365.55 903.04 365.55 904.64C365.55 906.25 365.12 907.63 364.25 908.76C363.39 909.89 362.17 910.64 360.59 911C362.39 911.49 363.75 912.33 364.66 913.52C365.58 914.72 366.04 916.21 366.04 918C366.04 920.49 365.12 922.44 363.28 923.87C361.43 925.29 359.04 926.01 356.1 926.01C353.16 926.01 350.76 925.29 348.92 923.87ZM358.87 922.25C359.67 921.95 360.32 921.44 360.84 920.72C361.35 920 361.61 919.09 361.61 918C361.61 916.34 361.09 915.08 360.05 914.21C359.02 913.34 357.7 912.9 356.1 912.9C354.5 912.9 353.18 913.34 352.14 914.21C351.11 915.08 350.59 916.34 350.59 918C350.59 919.09 350.85 920 351.36 920.72C351.88 921.44 352.53 921.95 353.33 922.25C354.12 922.54 355.04 922.68 356.1 922.68C357.15 922.68 358.08 922.54 358.87 922.25ZM359.97 907.88C360.89 907.11 361.35 905.99 361.35 904.5C361.35 903 360.86 901.91 359.87 901.23C358.88 900.55 357.62 900.2 356.1 900.2C355.4 900.2 354.74 900.28 354.14 900.43C353.53 900.58 352.98 900.81 352.48 901.13C351.97 901.45 351.58 901.9 351.29 902.47C351.01 903.04 350.86 903.72 350.86 904.5C350.86 905.99 351.33 907.11 352.26 907.88C353.19 908.65 354.47 909.03 356.1 909.03C357.75 909.03 359.04 908.65 359.97 907.88ZM179.29 1097.03C178.86 1096.66 178.65 1096.15 178.65 1095.49L178.63 1074.12L174.55 1076.74C174.3 1076.9 174.03 1076.99 173.73 1076.99C173.3 1076.99 172.93 1076.83 172.62 1076.5C172.3 1076.18 172.15 1075.81 172.15 1075.39C172.15 1074.87 172.4 1074.44 172.91 1074.12L179.73 1069.92C180.03 1069.74 180.42 1069.63 180.92 1069.61C181.49 1069.61 181.98 1069.8 182.39 1070.17C182.8 1070.55 183.01 1071.08 183.01 1071.75L183.01 1095.49C183.01 1096.15 182.79 1096.66 182.35 1097.03C181.92 1097.39 181.41 1097.57 180.82 1097.57C180.22 1097.57 179.71 1097.39 179.29 1097.03Z" />
			<path id="Path 48" fill-rule="evenodd" class="shp14" d="M199.33 1097.46C198.31 1097.09 197.43 1096.57 196.71 1095.88C195.98 1095.2 195.36 1094.42 194.84 1093.53C194.32 1092.65 193.91 1091.65 193.61 1090.53C193.31 1089.42 193.09 1088.29 192.96 1087.14C192.82 1086 192.75 1084.78 192.75 1083.47C192.75 1081.87 192.85 1080.39 193.04 1079.03C193.24 1077.67 193.58 1076.36 194.05 1075.1C194.53 1073.85 195.14 1072.78 195.89 1071.9C196.64 1071.02 197.6 1070.32 198.77 1069.8C199.94 1069.28 201.28 1069.02 202.79 1069.02C204.3 1069.02 205.64 1069.28 206.81 1069.8C207.99 1070.32 208.95 1071.02 209.7 1071.9C210.44 1072.78 211.06 1073.85 211.53 1075.11C212.01 1076.38 212.34 1077.69 212.54 1079.04C212.73 1080.39 212.83 1081.87 212.83 1083.47C212.83 1085.04 212.74 1086.49 212.55 1087.85C212.36 1089.2 212.03 1090.51 211.55 1091.78C211.08 1093.05 210.47 1094.14 209.72 1095.04C208.98 1095.93 208.02 1096.65 206.84 1097.19C205.66 1097.73 204.31 1098 202.79 1098C201.51 1098 200.36 1097.82 199.33 1097.46ZM204.91 1094.01C205.53 1093.71 206.04 1093.27 206.43 1092.69C206.83 1092.12 207.16 1091.49 207.43 1090.82C207.7 1090.14 207.89 1089.36 208.02 1088.47C208.14 1087.59 208.23 1086.76 208.28 1086C208.33 1085.24 208.36 1084.4 208.36 1083.47C208.36 1082.68 208.34 1081.95 208.31 1081.28C208.28 1080.61 208.21 1079.89 208.11 1079.12C208.02 1078.35 207.89 1077.66 207.72 1077.06C207.56 1076.45 207.33 1075.86 207.05 1075.28C206.76 1074.7 206.43 1074.22 206.05 1073.83C205.67 1073.45 205.21 1073.14 204.66 1072.91C204.1 1072.67 203.48 1072.55 202.79 1072.55C202.11 1072.55 201.5 1072.67 200.95 1072.91C200.41 1073.14 199.94 1073.45 199.56 1073.82C199.17 1074.2 198.84 1074.68 198.56 1075.26C198.28 1075.84 198.06 1076.43 197.9 1077.04C197.74 1077.64 197.61 1078.33 197.51 1079.1C197.41 1079.87 197.34 1080.59 197.31 1081.27C197.28 1081.94 197.26 1082.68 197.26 1083.47C197.26 1084.25 197.28 1084.97 197.31 1085.63C197.34 1086.29 197.41 1087.01 197.51 1087.78C197.61 1088.55 197.73 1089.25 197.89 1089.86C198.04 1090.47 198.27 1091.08 198.55 1091.68C198.84 1092.28 199.17 1092.77 199.55 1093.16C199.93 1093.55 200.39 1093.87 200.95 1094.11C201.5 1094.35 202.11 1094.47 202.79 1094.47C203.58 1094.47 204.29 1094.32 204.91 1094.01ZM341.95 1097.03C341.53 1096.66 341.32 1096.15 341.32 1095.49L341.3 1074.12L337.22 1076.74C336.97 1076.9 336.7 1076.99 336.4 1076.99C335.97 1076.99 335.59 1076.83 335.28 1076.5C334.97 1076.18 334.81 1075.81 334.81 1075.39C334.81 1074.87 335.07 1074.44 335.58 1074.12L342.39 1069.92C342.69 1069.74 343.09 1069.63 343.58 1069.61C344.16 1069.61 344.65 1069.8 345.06 1070.17C345.47 1070.55 345.67 1071.08 345.67 1071.75L345.67 1095.49C345.67 1096.15 345.45 1096.66 345.02 1097.03C344.58 1097.39 344.07 1097.57 343.49 1097.57C342.89 1097.57 342.37 1097.39 341.95 1097.03ZM365.19 1097.03C364.77 1096.66 364.56 1096.15 364.56 1095.49L364.54 1074.12L360.46 1076.74C360.21 1076.9 359.94 1076.99 359.64 1076.99C359.21 1076.99 358.84 1076.83 358.52 1076.5C358.21 1076.18 358.06 1075.81 358.06 1075.39C358.06 1074.87 358.31 1074.44 358.82 1074.12L365.63 1069.92C365.93 1069.74 366.33 1069.63 366.82 1069.61C367.4 1069.61 367.89 1069.8 368.3 1070.17C368.71 1070.55 368.91 1071.08 368.91 1071.75L368.91 1095.49C368.91 1096.15 368.7 1096.66 368.26 1097.03C367.82 1097.39 367.31 1097.57 366.73 1097.57C366.13 1097.57 365.62 1097.39 365.19 1097.03ZM515.15 1097.03C514.72 1096.66 514.51 1096.15 514.51 1095.49L514.49 1074.12L510.41 1076.74C510.16 1076.9 509.89 1076.99 509.59 1076.99C509.16 1076.99 508.79 1076.83 508.48 1076.5C508.17 1076.18 508.01 1075.81 508.01 1075.39C508.01 1074.87 508.26 1074.44 508.77 1074.12L515.59 1069.92C515.89 1069.74 516.28 1069.63 516.78 1069.61C517.35 1069.61 517.84 1069.8 518.25 1070.17C518.66 1070.55 518.87 1071.08 518.87 1071.75L518.87 1095.49C518.87 1096.15 518.65 1096.66 518.21 1097.03C517.78 1097.39 517.27 1097.57 516.68 1097.57C516.08 1097.57 515.57 1097.39 515.15 1097.03ZM546.43 1081.65C545.7 1083.02 544.52 1084.45 542.89 1085.93L534.16 1094.27L545.63 1094.27C546.12 1094.27 546.51 1094.43 546.8 1094.75C547.08 1095.07 547.23 1095.46 547.23 1095.91C547.23 1096.36 547.09 1096.74 546.81 1097.08C546.53 1097.41 546.14 1097.57 545.63 1097.57L532.05 1097.57C531.26 1097.57 530.62 1097.36 530.14 1096.94C529.66 1096.52 529.42 1095.99 529.42 1095.37C529.42 1095.2 529.44 1095.02 529.47 1094.85C529.51 1094.67 529.57 1094.5 529.65 1094.32C529.73 1094.15 529.83 1093.97 529.95 1093.79C530.08 1093.62 530.22 1093.45 530.39 1093.28L540.53 1083.06C542.46 1081.12 543.42 1079.32 543.42 1077.65C543.42 1076.22 542.94 1075.05 541.98 1074.16C541.03 1073.26 539.86 1072.81 538.48 1072.81C537.81 1072.81 537.21 1072.85 536.66 1072.93C536.12 1073 535.62 1073.13 535.17 1073.3C534.72 1073.47 534.36 1073.62 534.09 1073.75C533.83 1073.88 533.49 1074.07 533.08 1074.32C532.67 1074.58 532.37 1074.75 532.19 1074.84C532.01 1074.93 531.81 1074.98 531.6 1074.98C531.16 1074.98 530.76 1074.79 530.4 1074.41C530.04 1074.03 529.87 1073.61 529.87 1073.14C529.87 1072.58 530.14 1072.14 530.71 1071.81C531.99 1071.03 533.25 1070.44 534.48 1070.02C535.72 1069.61 537.18 1069.41 538.87 1069.41C540.11 1069.41 541.26 1069.62 542.35 1070.04C543.43 1070.47 544.34 1071.04 545.1 1071.75C545.85 1072.47 546.45 1073.31 546.88 1074.28C547.31 1075.25 547.52 1076.27 547.52 1077.34C547.52 1078.84 547.16 1080.27 546.43 1081.65ZM677.81 1097.03C677.39 1096.66 677.18 1096.15 677.18 1095.49L677.16 1074.12L673.08 1076.74C672.83 1076.9 672.56 1076.99 672.26 1076.99C671.83 1076.99 671.46 1076.83 671.14 1076.5C670.83 1076.18 670.68 1075.81 670.68 1075.39C670.68 1074.87 670.93 1074.44 671.44 1074.12L678.25 1069.92C678.55 1069.74 678.95 1069.63 679.44 1069.61C680.02 1069.61 680.51 1069.8 680.92 1070.17C681.33 1070.55 681.53 1071.08 681.53 1071.75L681.53 1095.49C681.53 1096.15 681.32 1096.66 680.88 1097.03C680.44 1097.39 679.93 1097.57 679.35 1097.57C678.75 1097.57 678.24 1097.39 677.81 1097.03ZM693.88 1096.46C693.2 1096.12 692.86 1095.62 692.86 1094.96C692.86 1094.64 692.94 1094.34 693.1 1094.05C693.26 1093.75 693.47 1093.52 693.73 1093.34C694 1093.15 694.28 1093.06 694.56 1093.06C694.73 1093.06 694.9 1093.09 695.05 1093.16C696.92 1094.03 698.68 1094.47 700.36 1094.47C702.04 1094.47 703.39 1094.09 704.41 1093.34C705.42 1092.58 705.93 1091.48 705.93 1090.03C705.93 1088.41 705.33 1087.1 704.11 1086.11C702.9 1085.12 701.39 1084.62 699.56 1084.62L698.02 1084.62C697.55 1084.62 697.19 1084.47 696.95 1084.16C696.7 1083.84 696.58 1083.47 696.58 1083.04C696.58 1082.61 696.7 1082.24 696.95 1081.92C697.19 1081.6 697.55 1081.44 698.02 1081.44L699.41 1081.44C701.17 1081.44 702.59 1081.05 703.67 1080.26C704.75 1079.47 705.29 1078.33 705.29 1076.83C705.29 1075.44 704.8 1074.38 703.82 1073.65C702.84 1072.92 701.67 1072.55 700.29 1072.55C699.27 1072.55 698.26 1072.67 697.27 1072.92C696.27 1073.16 695.42 1073.46 694.72 1073.82C694.55 1073.9 694.38 1073.94 694.21 1073.94C693.78 1073.94 693.4 1073.73 693.07 1073.32C692.74 1072.9 692.57 1072.44 692.57 1071.95C692.57 1071.43 692.79 1071.03 693.22 1070.76C693.91 1070.33 694.94 1069.93 696.32 1069.57C697.7 1069.2 699.08 1069.02 700.46 1069.02C702.18 1069.02 703.73 1069.3 705.1 1069.85C706.48 1070.4 707.59 1071.26 708.43 1072.43C709.28 1073.59 709.7 1074.99 709.7 1076.62C709.7 1079.6 708.18 1081.68 705.13 1082.87C706.8 1083.31 708.08 1084.16 708.98 1085.42C709.88 1086.69 710.33 1088.25 710.33 1090.09C710.33 1091.42 710.07 1092.6 709.54 1093.64C709.02 1094.67 708.31 1095.5 707.41 1096.13C706.5 1096.75 705.48 1097.22 704.34 1097.53C703.2 1097.85 701.97 1098 700.66 1098C698.05 1098 695.79 1097.49 693.88 1096.46ZM686.23 924.58C685.71 924.33 685.45 923.88 685.45 923.23C685.45 922.72 685.6 922.26 685.9 921.83C686.21 921.41 686.58 921.2 687.01 921.2C687.18 921.2 687.34 921.23 687.5 921.3C689.25 922.08 690.89 922.47 692.42 922.47C693.59 922.47 694.61 922.28 695.47 921.91C696.32 921.54 697.01 921.05 697.51 920.44C698.01 919.83 698.41 919.04 698.71 918.07C699.01 917.11 699.21 916.13 699.3 915.13C699.4 914.14 699.45 912.97 699.45 911.63C699.11 912.58 698.33 913.4 697.11 914.1C695.88 914.8 694.48 915.14 692.89 915.14L692.83 915.14C690.15 915.14 687.98 914.32 686.31 912.68C684.65 911.04 683.82 908.91 683.82 906.28C683.82 903.56 684.7 901.33 686.45 899.61C688.2 897.88 690.55 897.02 693.49 897.02C695.04 897.02 696.42 897.25 697.63 897.71C698.84 898.18 699.84 898.8 700.63 899.58C701.42 900.36 702.07 901.3 702.59 902.41C703.12 903.52 703.48 904.68 703.7 905.9C703.91 907.11 704.02 908.43 704.02 909.83C704.02 911.03 703.98 912.16 703.89 913.21C703.81 914.26 703.65 915.35 703.42 916.46C703.2 917.58 702.9 918.59 702.53 919.5C702.15 920.41 701.67 921.28 701.06 922.11C700.46 922.93 699.75 923.63 698.95 924.19C698.15 924.75 697.19 925.19 696.06 925.51C694.94 925.84 693.69 926 692.32 926C690.26 926 688.23 925.53 686.23 924.58ZM696.52 911.31C697.41 910.82 698.07 910.13 698.51 909.25C698.96 908.36 699.18 907.31 699.18 906.1C699.18 904.46 698.69 903.11 697.71 902.06C696.73 901 695.4 900.48 693.69 900.48C691.89 900.48 690.51 900.98 689.55 901.99C688.58 903 688.1 904.4 688.1 906.18C688.1 907.03 688.21 907.8 688.41 908.49C688.62 909.19 688.93 909.81 689.34 910.34C689.75 910.87 690.3 911.29 690.97 911.59C691.65 911.89 692.44 912.04 693.34 912.04C694.57 912.04 695.64 911.79 696.52 911.31ZM690.35 745.31C689.14 744.85 688.14 744.23 687.35 743.45C686.56 742.66 685.91 741.72 685.39 740.61C684.87 739.51 684.5 738.35 684.28 737.13C684.07 735.91 683.96 734.6 683.96 733.19C683.96 731.99 684 730.87 684.09 729.81C684.17 728.76 684.33 727.67 684.56 726.56C684.78 725.45 685.08 724.44 685.45 723.52C685.83 722.61 686.31 721.74 686.92 720.92C687.52 720.09 688.23 719.4 689.03 718.84C689.83 718.28 690.79 717.83 691.92 717.51C693.05 717.18 694.29 717.02 695.66 717.02C697.72 717.02 699.75 717.5 701.75 718.45C702.27 718.69 702.53 719.14 702.53 719.79C702.53 719.95 702.52 720.11 702.49 720.27C702.45 720.44 702.41 720.59 702.34 720.74C702.27 720.89 702.19 721.03 702.09 721.16C702 721.29 701.89 721.4 701.78 721.5C701.67 721.6 701.55 721.68 701.41 721.74C701.27 721.79 701.14 721.82 700.99 721.82C700.93 721.82 700.87 721.82 700.82 721.8C700.76 721.79 700.71 721.78 700.65 721.77C700.59 721.75 700.54 721.73 700.48 721.71C698.69 720.94 697.04 720.55 695.54 720.55C694.37 720.55 693.36 720.74 692.51 721.11C691.65 721.48 690.98 721.97 690.47 722.59C689.97 723.2 689.57 723.99 689.27 724.95C688.97 725.91 688.77 726.89 688.68 727.89C688.58 728.88 688.53 730.05 688.53 731.39C688.75 730.78 689.16 730.21 689.76 729.68C690.36 729.14 691.13 728.71 692.08 728.38C693.02 728.04 694.02 727.88 695.07 727.88L695.13 727.88C697.83 727.88 700.01 728.7 701.67 730.34C703.33 731.98 704.16 734.12 704.16 736.75C704.16 739.47 703.28 741.69 701.52 743.42C699.76 745.14 697.42 746 694.49 746C692.94 746 691.56 745.77 690.35 745.31ZM692.13 731.4C691.4 731.69 690.79 732.08 690.3 732.6C689.81 733.11 689.44 733.73 689.18 734.46C688.93 735.19 688.8 736.01 688.8 736.92C688.8 738.56 689.29 739.91 690.26 740.96C691.23 742.02 692.57 742.55 694.27 742.55C696.08 742.55 697.47 742.04 698.43 741.03C699.4 740.03 699.88 738.63 699.88 736.84C699.88 736 699.77 735.23 699.57 734.53C699.36 733.83 699.05 733.22 698.63 732.68C698.21 732.15 697.67 731.73 696.99 731.43C696.31 731.13 695.53 730.98 694.64 730.98C693.71 730.98 692.87 731.12 692.13 731.4Z" />
			<path id="Path 49" fill-rule="evenodd" class="shp15" d="M83.6 883.01L83.6 1094C83.6 1094 74.6 1091 73.1 1076.5L73.1 901.5C73.1 901.5 74.6 890.51 83.6 883.01ZM96.32 266.33L96.32 425C96.32 425 89.55 422.75 88.42 411.84L88.42 280.24C88.42 280.24 89.55 271.98 96.32 266.33ZM800.22 280.24L800.22 721.42C799.09 732.33 792.32 734.58 792.32 734.58L792.32 266.33C799.09 271.98 800.22 280.24 800.22 280.24ZM815.43 901.5L815.43 1076.5C813.93 1091 804.93 1094 804.93 1094L804.93 883.01C813.93 890.51 815.43 901.5 815.43 901.5ZM83.6 152.5L83.6 362.84C83.6 362.84 74.63 359.85 73.13 345.39L73.13 260.35C68.84 259.66 65.52 255.94 65.52 251.46L65.52 248.5L18.02 248.5L18.02 227.5L65.61 227.5C66.01 223.42 69.12 220.13 73.13 219.48L73.13 170.94C73.13 170.94 74.63 159.98 83.6 152.5ZM815.51 170.94L815.51 219.48C819.52 220.13 822.63 223.42 823.03 227.5L870.62 227.5L870.62 248.5L823.12 248.5L823.12 251.46C823.12 255.94 819.8 259.66 815.51 260.35L815.51 345.39C814.01 359.85 805.04 362.84 805.04 362.84L805.04 152.5C814.01 159.98 815.51 170.94 815.51 170.94Z" />
		</g>
	</g>
</svg>